<svg width="42" height="46" viewBox="0 0 42 46" fill="none" xmlns="http://www.w3.org/2000/svg">
<path d="M17.1691 30.9905H15.4473C14.3427 30.9905 13.4473 30.0951 13.4473 28.9905V23.0455C13.4473 22.515 13.658 22.0063 14.0331 21.6313L15.1502 20.5141C15.5253 20.139 15.736 19.6303 15.736 19.0999V16.4952H17.6433V18.021L19.6622 16.0022C20.4432 15.2211 21.7095 15.2211 22.4906 16.0022L28.1197 21.6313C28.4948 22.0063 28.7055 22.515 28.7055 23.0455V28.9905C28.7055 30.0951 27.81 30.9905 26.7055 30.9905H24.9836C23.8791 30.9905 22.9836 30.0951 22.9836 28.9905V28.3203C22.9836 27.267 22.1297 26.4131 21.0764 26.4131C20.023 26.4131 19.1691 27.267 19.1691 28.3203V28.9905C19.1691 30.0951 18.2737 30.9905 17.1691 30.9905Z" fill="#60C1F8"/>
<circle cx="21.0776" cy="22.9799" r="16.6655" stroke="#22355D"/>
<circle cx="21.0763" cy="5.81449" r="4.81455" fill="#F8C301" stroke="white" stroke-width="2"/>
<circle cx="35.9417" cy="14.3973" r="4.81455" transform="rotate(60 35.9417 14.3973)" fill="#F8C301" stroke="white" stroke-width="2"/>
<circle cx="6.21077" cy="14.3972" r="4.81455" transform="rotate(-60 6.21077 14.3972)" fill="#F8C301" stroke="white" stroke-width="2"/>
<circle cx="21.0763" cy="40.1454" r="4.81455" fill="#F8C301" stroke="white" stroke-width="2"/>
<circle cx="6.2112" cy="31.5627" r="4.81455" transform="rotate(60 6.2112 31.5627)" fill="#F8C301" stroke="white" stroke-width="2"/>
<circle cx="35.9432" cy="31.5627" r="4.81455" transform="rotate(-60 35.9432 31.5627)" fill="#F8C301" stroke="white" stroke-width="2"/>
</svg>
