<svg width="36" height="39" viewBox="0 0 36 39" fill="none" xmlns="http://www.w3.org/2000/svg">
<path fill-rule="evenodd" clip-rule="evenodd" d="M17.6851 32.421C19.3762 32.421 29.8957 20.6384 29.8957 12.2105C29.8957 5.46684 24.4288 0 17.6851 0C10.9414 0 5.47461 5.46684 5.47461 12.2105C5.47461 20.6384 15.9941 32.421 17.6851 32.421ZM17.6853 17.6842C20.9408 17.6842 23.58 15.045 23.58 11.7894C23.58 8.53388 20.9408 5.89471 17.6853 5.89471C14.4297 5.89471 11.7905 8.53388 11.7905 11.7894C11.7905 15.045 14.4297 17.6842 17.6853 17.6842Z" fill="#60C1F8"/>
<ellipse cx="17.6845" cy="33.8947" rx="2.52631" ry="0.210526" fill="#F8C301"/>
<path fill-rule="evenodd" clip-rule="evenodd" d="M17.6848 35.2584C23.7309 35.2584 28.6322 34.4101 28.6322 33.3637C28.6322 33.3299 28.6271 33.2964 28.617 33.2631C28.9011 33.4288 29.0532 33.6038 29.0532 33.7847C29.0532 34.8311 23.9634 35.6795 17.6848 35.6795C11.4062 35.6795 6.31641 34.8311 6.31641 33.7847C6.31641 33.6038 6.46853 33.4288 6.75261 33.2631C6.74255 33.2964 6.73746 33.3299 6.73746 33.3637C6.73746 34.4101 11.6388 35.2584 17.6848 35.2584Z" fill="#22355D"/>
<path fill-rule="evenodd" clip-rule="evenodd" d="M17.6842 37.6301C27.0892 37.6301 34.7135 36.3105 34.7135 34.6827C34.7135 34.6303 34.7056 34.5782 34.6899 34.5264C35.1318 34.7841 35.3684 35.0563 35.3684 35.3377C35.3684 36.9655 27.4509 38.2851 17.6842 38.2851C7.91749 38.2851 0 36.9655 0 35.3377C0 35.0563 0.23665 34.7841 0.678592 34.5263C0.66294 34.5781 0.655016 34.6303 0.655016 34.6827C0.655016 36.3105 8.27926 37.6301 17.6842 37.6301Z" fill="#F8C301"/>
</svg>
