<svg width="41" height="40" viewBox="0 0 41 40" fill="none" xmlns="http://www.w3.org/2000/svg">
<path d="M31.3981 26.7988C31.3981 26.2908 30.9863 25.8789 30.4783 25.8789H24.0589C24.1954 22.5578 25.036 19.1889 25.8515 15.9219C26.7695 12.2448 27.7187 8.44266 27.7187 4.59933C27.7187 2.06326 25.6554 0 23.1193 0H4.59933C2.06326 0 0 2.06326 0 4.59933C0 5.10735 0.411855 5.5192 0.919867 5.5192H7.33974C7.20317 8.84023 6.36223 12.2093 5.54661 15.4763C4.62865 19.1533 3.67947 22.9555 3.67947 26.7988C3.67947 29.3349 5.74273 31.3981 8.2788 31.3981H26.7988C29.3349 31.3981 31.3981 29.3349 31.3981 26.7988ZM1.99734 3.67947C2.377 2.60868 3.40007 1.83973 4.59933 1.83973C5.79859 1.83973 6.82167 2.60868 7.20133 3.67947H1.99734ZM5.5192 26.7988C5.5192 23.1816 6.44054 19.491 7.33152 15.9219C8.24949 12.2448 9.19867 8.44266 9.19867 4.59933C9.19867 3.56473 8.85507 2.60899 8.27629 1.83973H23.1193C24.641 1.83973 25.8789 3.07769 25.8789 4.59933C25.8789 8.21649 24.9576 11.9071 24.0666 15.4763C23.2219 18.8597 22.3515 22.3491 22.2177 25.8789H11.9583C11.4503 25.8789 11.0384 26.2908 11.0384 26.7988C11.0384 28.3204 9.80044 29.5584 8.2788 29.5584C6.75716 29.5584 5.5192 28.3204 5.5192 26.7988ZM26.7988 29.5584H11.9548C12.3576 29.0232 12.6472 28.3982 12.7857 27.7187H29.4002C29.0204 28.7893 27.998 29.5584 26.7988 29.5584Z" fill="#60C1F8"/>
<path d="M11.9589 9.19862H22.813C23.3211 9.19862 23.7329 8.78677 23.7329 8.27875C23.7329 7.77074 23.3211 7.35889 22.813 7.35889H11.9589C11.4509 7.35889 11.0391 7.77074 11.0391 8.27875C11.0391 8.78677 11.4509 9.19862 11.9589 9.19862Z" fill="#22355D"/>
<path d="M11.0956 12.8781H22.0761C22.5841 12.8781 22.996 12.4662 22.996 11.9582C22.996 11.4502 22.5841 11.0383 22.0761 11.0383H11.0956C10.5876 11.0383 10.1758 11.4502 10.1758 11.9582C10.1758 12.4662 10.5876 12.8781 11.0956 12.8781Z" fill="#22355D"/>
<path d="M10.2324 16.5576H21.1649C21.6729 16.5576 22.0847 16.1458 22.0847 15.6378C22.0847 15.1298 21.6729 14.7179 21.1649 14.7179H10.2324C9.72435 14.7179 9.3125 15.1298 9.3125 15.6378C9.3125 16.1458 9.72435 16.5576 10.2324 16.5576Z" fill="#22355D"/>
<path d="M9.32221 20.2371H20.3027C20.8107 20.2371 21.2226 19.8252 21.2226 19.3172C21.2226 18.8092 20.8107 18.3973 20.3027 18.3973H9.32221C8.8142 18.3973 8.40234 18.8092 8.40234 19.3172C8.40234 19.8252 8.8142 20.2371 9.32221 20.2371Z" fill="#22355D"/>
<circle cx="28.4469" cy="27.6206" r="9.72717" transform="rotate(-60 28.4469 27.6206)" fill="#F8C301" stroke="white" stroke-width="2"/>
<path d="M28.887 22.6633C26.2444 22.6633 24.1091 24.8039 24.1091 27.4439H22.5156L24.5845 29.5128L24.6217 29.5898L26.765 27.4439H25.1715C25.1715 25.3909 26.8367 23.7257 28.8897 23.7257C30.9426 23.7257 32.6079 25.3909 32.6079 27.4439C32.6079 29.4968 30.9426 31.1621 28.8897 31.1621C27.8619 31.1621 26.935 30.7424 26.263 30.0705L25.5114 30.8221C26.3746 31.6879 27.5671 32.2244 28.887 32.2244C31.5296 32.2244 33.6702 30.0838 33.6702 27.4439C33.6702 24.8039 31.5296 22.6633 28.887 22.6633Z" fill="white"/>
<path d="M28.3594 25.3191V27.9749L30.6328 29.3241L31.0152 28.6787L29.1561 27.5766V25.3191H28.3594Z" fill="white"/>
</svg>
