<svg width="110" height="110" viewBox="0 0 110 110" fill="none" xmlns="http://www.w3.org/2000/svg">
<g filter="url(#filter0_d_557_2)">
<circle cx="55" cy="45" r="35" fill="white"/>
</g>
<rect x="40.7556" y="44.593" width="9.11105" height="13.8898" stroke="#F8C301" stroke-width="0.813954"/>
<rect x="43.6572" y="46.3916" width="3.30834" height="3.30834" fill="#60C1F8"/>
<rect x="43.6572" y="53.192" width="3.30834" height="3.30834" fill="#60C1F8"/>
<mask id="path-5-inside-1_557_2" fill="white">
<path fill-rule="evenodd" clip-rule="evenodd" d="M55.3385 34.8072C55.141 34.5967 54.8067 34.5967 54.6092 34.8072L47.4869 42.3986C47.1874 42.7179 47.4138 43.2408 47.8516 43.2408H49.2761V58.8372H60.6715V43.2408H62.0961C62.5339 43.2408 62.7603 42.7179 62.4607 42.3986L55.3385 34.8072Z"/>
</mask>
<path fill-rule="evenodd" clip-rule="evenodd" d="M55.3385 34.8072C55.141 34.5967 54.8067 34.5967 54.6092 34.8072L47.4869 42.3986C47.1874 42.7179 47.4138 43.2408 47.8516 43.2408H49.2761V58.8372H60.6715V43.2408H62.0961C62.5339 43.2408 62.7603 42.7179 62.4607 42.3986L55.3385 34.8072Z" fill="white"/>
<path d="M54.6092 34.8072L55.2028 35.3641V35.3641L54.6092 34.8072ZM55.3385 34.8072L54.7449 35.3641V35.3641L55.3385 34.8072ZM47.4869 42.3986L46.8933 41.8417H46.8933L47.4869 42.3986ZM49.2761 43.2408H50.0901V42.4268H49.2761V43.2408ZM49.2761 58.8372H48.4622V59.6512H49.2761V58.8372ZM60.6715 58.8372V59.6512H61.4855V58.8372H60.6715ZM60.6715 43.2408V42.4268H59.8576V43.2408H60.6715ZM62.4607 42.3986L61.8671 42.9556L61.8671 42.9556L62.4607 42.3986ZM55.2028 35.3641C55.0788 35.4963 54.8689 35.4963 54.7449 35.3641L55.9321 34.2503C55.413 33.697 54.5346 33.697 54.0156 34.2503L55.2028 35.3641ZM48.0805 42.9556L55.2028 35.3641L54.0156 34.2503L46.8933 41.8417L48.0805 42.9556ZM47.8516 42.4268C48.1265 42.4268 48.2686 42.7551 48.0805 42.9556L46.8933 41.8417C46.1061 42.6808 46.7011 44.0547 47.8516 44.0547V42.4268ZM49.2761 42.4268H47.8516V44.0547H49.2761V42.4268ZM50.0901 58.8372V43.2408H48.4622V58.8372H50.0901ZM60.6715 58.0233H49.2761V59.6512H60.6715V58.0233ZM59.8576 43.2408V58.8372H61.4855V43.2408H59.8576ZM62.0961 42.4268H60.6715V44.0547H62.0961V42.4268ZM61.8671 42.9556C61.6791 42.7551 61.8212 42.4268 62.0961 42.4268V44.0547C63.2466 44.0547 63.8415 42.6808 63.0543 41.8417L61.8671 42.9556ZM54.7449 35.3641L61.8671 42.9556L63.0543 41.8417L55.9321 34.2503L54.7449 35.3641Z" fill="#F8C301" mask="url(#path-5-inside-1_557_2)"/>
<circle cx="55.0005" cy="42.5582" r="2.03488" stroke="#60C1F8" stroke-width="0.813954"/>
<rect x="60.2908" y="44.5406" width="9.11105" height="13.8898" stroke="#F8C301" stroke-width="0.813954"/>
<rect x="63.1924" y="46.3392" width="3.30834" height="3.30834" fill="#60C1F8"/>
<rect x="63.1924" y="53.1396" width="3.30834" height="3.30834" fill="#60C1F8"/>
<rect x="52.2441" y="49.5698" width="5.51163" height="7.95349" stroke="#60C1F8"/>
<rect x="52.1511" y="47.0349" width="5.69767" height="0.813953" stroke="#60C1F8" stroke-width="0.813953"/>
<path d="M56.9961 31.8061L55.0662 32.3632V31.249L56.9961 31.8061Z" fill="#FFBF00"/>
<rect x="54.79" y="31.1628" width="0.367593" height="3.49213" rx="0.183796" fill="#0C101A"/>
<defs>
<filter id="filter0_d_557_2" x="0" y="0" width="110" height="110" filterUnits="userSpaceOnUse" color-interpolation-filters="sRGB">
<feFlood flood-opacity="0" result="BackgroundImageFix"/>
<feColorMatrix in="SourceAlpha" type="matrix" values="0 0 0 0 0 0 0 0 0 0 0 0 0 0 0 0 0 0 127 0" result="hardAlpha"/>
<feOffset dy="10"/>
<feGaussianBlur stdDeviation="10"/>
<feComposite in2="hardAlpha" operator="out"/>
<feColorMatrix type="matrix" values="0 0 0 0 0 0 0 0 0 0 0 0 0 0 0 0 0 0 0.04 0"/>
<feBlend mode="normal" in2="BackgroundImageFix" result="effect1_dropShadow_557_2"/>
<feBlend mode="normal" in="SourceGraphic" in2="effect1_dropShadow_557_2" result="shape"/>
</filter>
</defs>
</svg>
