<svg width="12" height="11" viewBox="0 0 12 11" fill="none" xmlns="http://www.w3.org/2000/svg">
<rect x="1.2627" y="9.27637" width="9.47368" height="1.26316" fill="white"/>
<path d="M0 6.75H1.26316V10.5395C0.565535 10.5395 0 9.97394 0 9.27632V6.75Z" fill="white"/>
<path d="M12 6.75H10.7368V10.5395C11.4345 10.5395 12 9.97394 12 9.27632V6.75Z" fill="white"/>
<path d="M6.31579 0.75C6.31579 0.575594 6.17441 0.434211 6 0.434211C5.82559 0.434211 5.68421 0.575594 5.68421 0.75L6.31579 0.75ZM5.7767 6.9733C5.90003 7.09662 6.09997 7.09662 6.2233 6.9733L8.23297 4.96362C8.35629 4.8403 8.35629 4.64035 8.23297 4.51703C8.10965 4.39371 7.9097 4.39371 7.78638 4.51703L6 6.30341L4.21363 4.51703C4.0903 4.39371 3.89036 4.39371 3.76703 4.51703C3.64371 4.64035 3.64371 4.8403 3.76703 4.96363L5.7767 6.9733ZM5.68421 0.75L5.68421 6.75L6.31579 6.75L6.31579 0.75L5.68421 0.75Z" fill="white"/>
</svg>
