<svg width="110" height="110" viewBox="0 0 110 110" fill="none" xmlns="http://www.w3.org/2000/svg">
<g filter="url(#filter0_d_557_4)">
<circle cx="55" cy="45" r="35" fill="white"/>
</g>
<rect x="40" y="44.5618" width="29.0222" height="1.35618" fill="#F8C301"/>
<path d="M63.3266 45.3754C63.3266 53.3148 59.3799 59.7509 54.5114 59.7509C49.643 59.7509 45.6963 53.3148 45.6963 45.3754C45.6963 37.4361 49.643 30.9999 54.5114 30.9999C59.3799 30.9999 63.3266 37.4361 63.3266 45.3754ZM46.6579 45.3754C46.6579 52.4487 50.1741 58.1827 54.5114 58.1827C58.8488 58.1827 62.365 52.4487 62.365 45.3754C62.365 38.3021 58.8488 32.5681 54.5114 32.5681C50.1741 32.5681 46.6579 38.3021 46.6579 45.3754Z" fill="#F8C301"/>
<path d="M69.0222 45.3755C69.0222 53.3148 62.5254 59.751 54.5111 59.751C46.4968 59.751 40 53.3148 40 45.3755C40 37.4361 46.4968 31 54.5111 31C62.5254 31 69.0222 37.4361 69.0222 45.3755ZM41.2749 45.3755C41.2749 52.6173 47.201 58.4879 54.5111 58.4879C61.8212 58.4879 67.7473 52.6173 67.7473 45.3755C67.7473 38.1337 61.8212 32.263 54.5111 32.263C47.201 32.263 41.2749 38.1337 41.2749 45.3755Z" fill="#F8C301"/>
<rect x="53.833" y="30.9999" width="1.35618" height="28.751" fill="#F8C301"/>
<path d="M64.4113 36.0178C64.4113 38.3397 59.9181 40.222 54.3756 40.222C48.833 40.222 44.3398 38.3397 44.3398 36.0178C44.3398 33.6959 48.833 31.8137 54.3756 31.8137C59.9181 31.8137 64.4113 33.6959 64.4113 36.0178ZM46.3513 36.0178C46.3513 37.8743 49.9439 39.3793 54.3756 39.3793C58.8072 39.3793 62.3998 37.8743 62.3998 36.0178C62.3998 34.1613 58.8072 32.6563 54.3756 32.6563C49.9439 32.6563 46.3513 34.1613 46.3513 36.0178Z" fill="#F8C301"/>
<path d="M64.4113 54.4619C64.4113 56.9336 59.9181 58.9373 54.3756 58.9373C48.833 58.9373 44.3398 56.9336 44.3398 54.4619C44.3398 51.9902 48.833 49.9865 54.3756 49.9865C59.9181 49.9865 64.4113 51.9902 64.4113 54.4619ZM45.6332 54.4619C45.6332 56.615 49.5473 58.3605 54.3756 58.3605C59.2038 58.3605 63.1179 56.615 63.1179 54.4619C63.1179 52.3088 59.2038 50.5633 54.3756 50.5633C49.5473 50.5633 45.6332 52.3088 45.6332 54.4619Z" fill="#F8C301"/>
<path d="M66.7651 58.3757L59.7888 45.0572C59.6969 44.8818 59.8688 44.685 60.055 44.7526L74.3868 49.9526C74.5648 50.0172 74.5804 50.2629 74.412 50.3495L70.3896 52.4182C70.2539 52.488 70.2307 52.6724 70.3449 52.7736L74.6965 56.6278C74.7843 56.7056 74.7944 56.8391 74.7193 56.9292L73.6411 58.223C73.5627 58.3171 73.4222 58.3277 73.3305 58.2466L68.9859 54.3985C68.8724 54.298 68.6935 54.3418 68.6394 54.4834L67.16 58.3525C67.0933 58.527 66.8518 58.5412 66.7651 58.3757Z" fill="#60C1F8" stroke="white" stroke-width="0.542471"/>
<defs>
<filter id="filter0_d_557_4" x="0" y="0" width="110" height="110" filterUnits="userSpaceOnUse" color-interpolation-filters="sRGB">
<feFlood flood-opacity="0" result="BackgroundImageFix"/>
<feColorMatrix in="SourceAlpha" type="matrix" values="0 0 0 0 0 0 0 0 0 0 0 0 0 0 0 0 0 0 127 0" result="hardAlpha"/>
<feOffset dy="10"/>
<feGaussianBlur stdDeviation="10"/>
<feComposite in2="hardAlpha" operator="out"/>
<feColorMatrix type="matrix" values="0 0 0 0 0 0 0 0 0 0 0 0 0 0 0 0 0 0 0.04 0"/>
<feBlend mode="normal" in2="BackgroundImageFix" result="effect1_dropShadow_557_4"/>
<feBlend mode="normal" in="SourceGraphic" in2="effect1_dropShadow_557_4" result="shape"/>
</filter>
</defs>
</svg>
